PathFileType	4	(X/Y/Z)	C:/Users/opensim2020/Desktop/walking_exp_matlab/subject06_walking20_straight_01.trc	
DataRate	CameraRate	NumFrames	NumMarkers	Units	OrigDataRate	OrigDataStartFrame	OrigNumFrames	
100.00	100.00	4	43	mm	100.00	780	127	
Frame#	Time	LFHD			RFHD			LBHD			RBHD			C7			T10			CLAV			STRN			RBAK			LSHO			LUPA			LELB			LFRM			LWRA			LWRB			LFIN			RSHO			RUPA			RELB			RFRM			RWRA			RWRB			RFIN			LASI			RASI			LPSI			RPSI			LTHI			LKNE			LTIB			LANK			LHEE			LTOE			RTHI			RKNE			RTIB			RANK			RHEE			RTOE			*39			*40			*41			*42			
		X1	Y1	Z1	X2	Y2	Z2	X3	Y3	Z3	X4	Y4	Z4	X5	Y5	Z5	X6	Y6	Z6	X7	Y7	Z7	X8	Y8	Z8	X9	Y9	Z9	X10	Y10	Z10	X11	Y11	Z11	X12	Y12	Z12	X13	Y13	Z13	X14	Y14	Z14	X15	Y15	Z15	X16	Y16	Z16	X17	Y17	Z17	X18	Y18	Z18	X19	Y19	Z19	X20	Y20	Z20	X21	Y21	Z21	X22	Y22	Z22	X23	Y23	Z23	X24	Y24	Z24	X25	Y25	Z25	X26	Y26	Z26	X27	Y27	Z27	X28	Y28	Z28	X29	Y29	Z29	X30	Y30	Z30	X31	Y31	Z31	X32	Y32	Z32	X33	Y33	Z33	X34	Y34	Z34	X35	Y35	Z35	X36	Y36	Z36	X37	Y37	Z37	X38	Y38	Z38	X39	Y39	Z39	X40	Y40	Z40	X41	Y41	Z41	X42	Y42	Z42	X43	Y43	Z43	

48	0.470	-1090.39905	-293.72726	1630.79822	-958.99658	-297.21536	1620.25623	-1094.22571	-427.26898	1579.04138	-965.00555	-429.23264	1573.64465	-1033.87061	-432.49530	1422.29382	-1009.07922	-476.28152	1095.53137	-1030.61340	-325.04578	1340.65015	-1026.81909	-290.07666	1165.96082	-942.44855	-510.70828	1259.27686	-1193.30334	-380.69711	1369.43787	-1259.43616	-446.92130	1180.66089	-1268.58679	-494.72720	1078.98596	-1298.13037	-532.83173	935.24457	-1269.59668	-516.65967	802.34381	-1298.62781	-578.67126	825.59851	-1304.74060	-578.28632	734.23932	-871.65820	-368.88754	1383.80493	-767.60309	-408.32590	1196.57605	-747.41876	-395.40482	1077.49097	-732.64825	-343.46262	971.44000	-776.01721	-240.81827	868.21466	-732.63281	-286.97696	847.02045	-733.66736	-222.97182	795.37836	-1111.23853	-287.66534	944.20172	-894.88293	-309.92953	932.26050	-1096.10266	-449.06821	966.41455	-929.42249	-456.14313	958.34741	-1183.15454	-273.27176	644.35419	-1149.40613	-218.10323	493.74973	-1146.62219	-215.01736	234.33655	-1103.22461	-210.40532	63.28477	-1060.05420	-253.54477	50.02280	-1086.79944	-67.21448	37.46922	-848.30072	-399.01996	591.61121	-863.20581	-411.92810	464.75543	-871.05804	-621.68054	306.36984	-912.78461	-775.34039	205.67715	-956.99359	-809.98767	231.14690	-927.24109	-750.21014	48.99829	-1034.24890	-394.47974	1670.86145									 
49	0.480	-1091.51465	-280.19675	1633.50586	-960.05664	-283.81870	1623.31421	-1095.37488	-413.35501	1580.78882	-966.20618	-415.50186	1575.70264	-1035.15369	-417.72025	1424.62073	-1010.37195	-461.04050	1097.84900	-1031.32874	-310.12405	1343.12292	-1027.35999	-274.86526	1168.36792	-943.98444	-496.32352	1261.71814	-1194.40393	-364.71002	1372.18640	-1260.95691	-429.21286	1182.73682	-1270.24805	-476.16476	1080.62964	-1299.65198	-512.40814	936.33264	-1269.25305	-494.81351	803.73981	-1300.14661	-556.48859	825.94000	-1304.66626	-555.26361	734.19592	-872.55255	-354.99478	1385.90405	-768.99847	-395.80203	1198.64722	-749.18860	-384.41562	1079.33777	-734.08862	-334.57520	972.02856	-776.56799	-233.85025	866.18298	-733.53033	-280.67197	846.07629	-733.94373	-218.14442	792.86920	-1112.42981	-273.10254	946.20734	-895.55518	-295.45081	934.31165	-1097.10095	-434.15863	968.75555	-930.40540	-441.45557	960.23566	-1182.53394	-262.45218	644.04980	-1148.57581	-207.92990	493.55640	-1145.29492	-210.36411	234.53780	-1102.52295	-209.80328	63.37878	-1059.14990	-254.20541	50.99060	-1086.03699	-66.75082	37.10064	-849.32513	-378.04840	592.20862	-863.95380	-386.62949	465.27417	-871.11621	-595.14685	309.23404	-912.71069	-750.72870	211.81804	-957.36407	-782.70135	240.08414	-928.68732	-739.09082	51.89735	-1035.58813	-381.32742	1673.04541									 
50	0.490	-1092.30188	-266.57321	1636.30994	-960.85596	-270.23120	1626.47217	-1096.32227	-399.35995	1582.69910	-967.15796	-401.69122	1577.82031	-1036.26025	-403.00699	1427.26660	-1011.86011	-446.21820	1100.37292	-1031.88452	-295.38779	1345.78467	-1027.98486	-260.04489	1170.80310	-945.63861	-482.17276	1264.32471	-1195.28552	-348.82498	1374.82019	-1262.44897	-411.34344	1184.70483	-1272.01917	-457.32761	1082.15674	-1301.07434	-491.41992	937.17523	-1269.13721	-472.44760	804.90717	-1301.58020	-533.67651	826.13782	-1304.47827	-531.26227	734.14209	-873.23840	-341.19580	1387.92932	-770.24115	-383.39136	1200.50122	-750.59003	-373.58087	1080.91064	-735.38928	-325.95508	972.41870	-777.06842	-227.02959	864.15564	-734.34149	-275.06784	845.36450	-734.47473	-213.89346	790.33990	-1113.47253	-258.76489	948.01636	-896.08167	-281.24158	936.55676	-1098.30591	-419.41208	971.08459	-931.41022	-427.35767	962.34973	-1181.95801	-251.71295	643.93713	-1147.79004	-198.66536	493.33881	-1144.40076	-207.04201	234.95740	-1101.75598	-209.73683	63.50084	-1059.12610	-253.99713	51.09023	-1084.89868	-66.52264	36.83392	-850.44775	-357.25137	593.28406	-865.04346	-361.42505	466.42538	-871.26141	-567.48248	310.86615	-912.86145	-725.31360	217.11241	-957.72113	-755.88013	246.54118	-927.60663	-719.62976	57.04261	-1036.73877	-368.10938	1675.30298									 
51	0.500	-1092.94739	-252.97070	1639.22473	-961.54456	-256.75967	1629.49792	-1097.09631	-385.43628	1584.79797	-967.95776	-387.94202	1580.05859	-1037.31628	-388.22916	1429.99646	-1013.37341	-431.44235	1102.90662	-1032.35413	-280.78671	1348.37805	-1028.58386	-245.47592	1173.23206	-947.65344	-468.19086	1266.73889	-1196.12378	-332.87476	1377.52698	-1264.09290	-393.25659	1186.72913	-1273.67371	-438.18405	1083.50317	-1302.43225	-469.84320	937.83435	-1269.41052	-449.49524	806.11127	-1302.84937	-510.26617	826.12500	-1304.16431	-506.19281	734.08704	-873.75116	-327.44916	1389.92615	-771.32971	-371.36649	1202.25098	-751.70801	-362.91483	1082.28784	-736.52368	-317.58530	972.64886	-777.72583	-221.41805	861.59509	-735.00818	-269.73825	844.50043	-734.95526	-209.75740	787.55359	-1114.28613	-244.61189	949.68652	-896.50006	-267.17953	938.89746	-1099.57349	-404.85449	973.44470	-932.53180	-413.39438	964.42621	-1181.49512	-240.92892	644.18335	-1147.45496	-190.43002	493.05127	-1144.04211	-204.54361	235.33069	-1101.78406	-209.11804	63.91034	-1058.93494	-254.17561	51.24072	-1084.02161	-66.32246	36.76882	-851.58264	-336.54709	594.82257	-865.85516	-336.07086	468.15811	-871.27100	-540.02692	311.80304	-913.39581	-700.23010	221.72997	-958.13806	-731.94031	250.49109	-926.79065	-691.71490	61.93865	-1037.59106	-354.81833	1677.80396									 
